<?xml version="1.0" encoding="UTF-8" standalone="no"?>
<svg width="18px" height="18px" viewBox="0 0 18 18" version="1.1" xmlns="http://www.w3.org/2000/svg" xmlns:xlink="http://www.w3.org/1999/xlink">
    <!-- Generator: Sketch 45.1 (43504) - http://www.bohemiancoding.com/sketch -->
    <title>Group 3</title>
    <desc>Created with Sketch.</desc>
    <defs></defs>
    <g id="新台電" stroke="none" stroke-width="1" fill="none" fill-rule="evenodd">
        <g id="新台電-查詢定位" transform="translate(-885.000000, -688.000000)" fill-rule="nonzero" fill="#00A1CC">
            <g id="Group-4" transform="translate(725.000000, 679.000000)">
                <g id="Group" transform="translate(17.000000, 7.000000)">
                    <g id="Group-3" transform="translate(143.000000, 2.000000)">
                        <g id="noun_574761_cc">
                            <path d="M16.9257792,8.71599314 L8.72282763,16.9197382 L0.866658506,9.06356911 L9.06961004,0.860617572 C9.50050902,0.429718599 10.0956733,0.16308498 10.7527348,0.16308498 C11.4097962,0.16308498 12.0057541,0.429718599 12.4358595,0.860617572 L16.9249856,5.34974371 C17.3558846,5.78064268 17.6217247,6.37580701 17.6217247,7.03286842 C17.6217247,7.68992984 17.355091,8.28509417 16.9249856,8.71599314 L16.9257792,8.71599314 Z M6.47786779,16.9197382 C6.04696881,17.3506372 5.45180448,17.6164773 4.79474307,17.6164773 C4.13768165,17.6164773 3.54251732,17.3498437 3.11161835,16.9197382 L0.866658506,14.6747784 C0.435759533,14.2438794 0.169919466,13.6487151 0.169919466,12.9916537 C0.169919466,12.3345923 0.436553085,11.7394279 0.866658506,11.308529 L6.47786779,16.9197382 Z" id="Shape"></path>
                        </g>
                    </g>
                </g>
            </g>
        </g>
    </g>
</svg>