<?xml version="1.0" encoding="UTF-8" standalone="no"?>
<svg width="19px" height="19px" viewBox="0 0 19 19" version="1.1" xmlns="http://www.w3.org/2000/svg" xmlns:xlink="http://www.w3.org/1999/xlink">
    <!-- Generator: Sketch 45.1 (43504) - http://www.bohemiancoding.com/sketch -->
    <title>Group 12</title>
    <desc>Created with Sketch.</desc>
    <defs></defs>
    <g id="新台電" stroke="none" stroke-width="1" fill="none" fill-rule="evenodd">
        <g id="新台電-查詢定位" transform="translate(-930.000000, -688.000000)" fill-rule="nonzero" fill="#00A1CC">
            <g id="Group-4" transform="translate(725.000000, 679.000000)">
                <g id="Group" transform="translate(17.000000, 7.000000)">
                    <g id="Group-12" transform="translate(188.000000, 2.000000)">
                        <path d="M16.3011194,8.26273429 C15.9291019,5.00145549 13.3558849,2.42823846 10.0946061,2.05622094 L10.0946061,0.83658828 C10.0946061,0.401596912 9.74197589,0.0489667339 9.30698452,0.0489667339 C8.87199315,0.0489667339 8.51936297,0.401596912 8.51936297,0.83658828 L8.51936297,2.05622094 C5.25916625,2.42944212 2.68738929,5.00237079 2.31562783,8.26273429 L1.09599517,8.26273429 C0.661003798,8.26273429 0.308373621,8.61536447 0.308373621,9.05035584 C0.308373621,9.48534721 0.661003798,9.83797738 1.09599517,9.83797738 L2.31562783,9.83797738 C2.68884901,13.0981741 5.26177768,15.6699511 8.52214118,16.0417125 L8.52214118,17.2613452 C8.52214118,17.6963366 8.87477136,18.0489667 9.30976272,18.0489667 C9.74475409,18.0489667 10.0973843,17.6963366 10.0973843,17.2613452 L10.0973843,16.0417125 C13.357581,15.6684913 15.929358,13.0955627 16.3011194,9.83519918 L17.5207521,9.83519918 C17.9557434,9.83519918 18.3083736,9.482569 18.3083736,9.04757763 C18.3083736,8.61258626 17.9557434,8.25995608 17.5207521,8.25995608 L16.3011194,8.26273429 Z M10.0946061,13.3385176 C10.0946061,12.9035262 9.74197589,12.550896 9.30698452,12.550896 C8.87199315,12.550896 8.51936297,12.9035262 8.51936297,13.3385176 L8.51936297,14.4498002 C6.13310954,14.0980875 4.25925285,12.2242308 3.90754016,9.83797738 L5.01882276,9.83797738 C5.45381413,9.83797738 5.80644431,9.48534721 5.80644431,9.05035584 C5.80644431,8.61536447 5.45381413,8.26273429 5.01882276,8.26273429 L3.90754016,8.26273429 C4.25925285,5.87648086 6.13310954,4.00262417 8.51936297,3.65091148 L8.51936297,4.76219408 C8.51936297,5.19718545 8.87199315,5.54981563 9.30698452,5.54981563 C9.74197589,5.54981563 10.0946061,5.19718545 10.0946061,4.76219408 L10.0946061,3.65091148 C12.4808595,4.00262417 14.3547162,5.87648086 14.7064289,8.26273429 L13.5951463,8.26273429 C13.1601549,8.26273429 12.8075247,8.61536447 12.8075247,9.05035584 C12.8075247,9.48534721 13.1601549,9.83797738 13.5951463,9.83797738 L14.7064289,9.83797738 C14.3547162,12.2242308 12.4808595,14.0980875 10.0946061,14.4498002 L10.0946061,13.3385176 Z M8.51883757,9.83869118 C8.95803112,10.2778847 9.66213369,10.2748439 10.0982865,9.83869118 C10.53748,9.39949763 10.5344392,8.69539506 10.0982865,8.25924229 C9.65909292,7.82004875 8.95499034,7.82308952 8.51883757,8.25924229 C8.07964403,8.69843583 8.08268481,9.40253841 8.51883757,9.83869118 Z" id="Combined-Shape"></path>
                    </g>
                </g>
            </g>
        </g>
    </g>
</svg>