<?xml version="1.0" encoding="UTF-8" standalone="no"?>
<svg width="24px" height="24px" viewBox="0 0 24 24" version="1.1" xmlns="http://www.w3.org/2000/svg" xmlns:xlink="http://www.w3.org/1999/xlink">
    <!-- Generator: Sketch 45.1 (43504) - http://www.bohemiancoding.com/sketch -->
    <title>noun_915699_cc</title>
    <desc>Created with Sketch.</desc>
    <defs></defs>
    <g id="新台電" stroke="none" stroke-width="1" fill="none" fill-rule="evenodd">
        <g id="新台電-查詢定位" transform="translate(-795.000000, -17.000000)" fill-rule="nonzero" fill="#00F8FF">
            <g id="Group-21" transform="translate(655.000000, 0.000000)">
                <g id="Group-7" transform="translate(123.000000, 0.000000)">
                    <g id="noun_915699_cc" transform="translate(17.000000, 17.000000)">
                        <g id="Group">
                            <path d="M12,0 C18.6168,0 24,5.38346666 24,12 C24,18.6168 18.6168,24 12,24 C5.3832,24 0,18.6168 0,12 C0,5.38346666 5.3832,0 12,0 Z M11.9318182,23.2027229 C17.9209568,23.2027229 22.8167915,18.4279807 23.0268392,12.4787566 C22.7934528,12.390253 22.3336261,12.4333916 22.3336261,12.4333916 L21.7948926,12.9582904 L20.9641483,11.9168422 C20.9641483,11.9168422 20.4362506,10.7654602 20.3128892,10.1484398 C20.227592,9.72262049 20.2387057,8.85734458 20.2387057,8.85734458 L20.1056199,7.62441686 L20.472092,6.77138674 C20.472092,6.77138674 20.8922374,6.30817728 21.0213835,6.33972288 C21.1505296,6.3712685 21.3753528,6.58213373 21.3753528,6.58213373 C21.3753528,6.58213373 21.5031597,6.56543494 21.5559494,6.54038674 C21.3228409,6.13571928 21.0650046,5.74747229 20.7843852,5.37675905 C20.5718244,5.41825051 20.3128892,5.30059006 20.3128892,5.30059006 L19.9831366,5.56867411 L19.6348797,5.56867411 L18.9793118,5.07654838 L18.4495419,4.7787527 L18.4495419,4.59761066 L18.2905986,4.38440971 L16.6581229,4.19557723 L15.4127844,4.27773202 L14.472876,4.59761066 L13.6959501,6.51533856 L12.2038244,7.41373373 L10.837125,8.62940602 L10.2139278,9.12174216 L9.66685908,10.0240337 L8.91752215,9.70703494 L7.81366022,9.58708193 C7.81366022,9.58708193 6.50113978,10.5898446 6.87928126,11.3390639 C7.21185682,11.9983879 8.10372614,11.1372867 8.31155114,11.7267542 C8.38962444,11.9482916 8.25070397,12.233841 8.49214774,12.3883048 C8.62828978,12.4756952 8.91752215,12.7054546 8.91752215,12.7054546 L9.49904525,13.1691659 L9.49904525,13.905594 L8.78618993,13.5396037 C8.78618993,13.5396037 8.433228,13.3882843 8.07592459,13.0957771 C7.56486509,12.6779965 7.1267563,12.4520751 6.26264513,11.7267542 C5.39853394,11.0014333 5.70369662,11.3998425 5.48007444,10.9168626 C5.25645223,10.4338828 5.2822517,9.7334747 5.07970567,9.17183856 C4.90855567,8.69703614 4.54736251,7.76190362 4.54736251,7.76190362 L4.84520796,6.51533856 L5.72957556,5.47110722 L5.91045,4.65314458 L6.34332614,3.91088314 C6.34332614,3.91088314 6.00784862,2.97432607 5.89239034,2.75393494 C2.84725397,4.7394217 0.829295455,8.17853856 0.829295455,12.0813253 C0.829295455,18.2136795 5.80987159,23.2027229 11.9318182,23.2027229 Z M16.9107273,15.3896308 C16.9107273,15.3896308 17.8755685,16.8013232 17.7180327,16.984175 C17.5604969,17.1670268 17.4258443,17.8632831 17.4258443,17.8632831 L16.3901238,18.5474633 L15.9627341,19.5075578 C15.9627341,19.5075578 15.9799602,19.6673096 15.0508602,20.3761735 C14.1217602,21.0850374 12.070183,22.1999602 12.070183,22.1999602 L11.1005182,22.6533325 L10.8169026,22.1999602 L11.1005182,21.6522967 C11.1005182,21.6522967 11.5587206,20.857116 11.6309165,20.5898437 C11.7031124,20.3225715 11.6309165,19.6887398 11.6309165,19.6887398 L11.3476591,18.4116917 C11.3476591,18.4116917 10.3260729,17.8020972 10.1034923,17.4946465 C9.88091172,17.1871959 9.73220321,16.4612258 9.73220321,16.4612258 L9.35591921,14.9568665 L10.4184187,13.9549301 L12.3763044,13.5541198 L15.2634085,15.1820133 L16.9107273,15.3896308 Z" id="Shape"></path>
                        </g>
                    </g>
                </g>
            </g>
        </g>
    </g>
</svg>