<?xml version="1.0" encoding="UTF-8" standalone="no"?>
<svg width="28px" height="27px" viewBox="0 0 28 27" version="1.1" xmlns="http://www.w3.org/2000/svg" xmlns:xlink="http://www.w3.org/1999/xlink">
    <!-- Generator: Sketch 45.1 (43504) - http://www.bohemiancoding.com/sketch -->
    <title>edit_icon</title>
    <desc>Created with Sketch.</desc>
    <defs></defs>
    <g id="新台電" stroke="none" stroke-width="1" fill="none" fill-rule="evenodd">
        <g id="新台電-查詢定位" transform="translate(-915.000000, -13.000000)">
            <g id="Group-21" transform="translate(655.000000, 0.000000)">
                <g id="Group-11" transform="translate(243.000000, 0.000000)">
                    <g id="edit_icon" transform="translate(18.000000, 13.000000)">
                        <path d="M20.0478414,3.5617211 C19.9195488,3.43498186 19.712524,3.43498186 19.5842314,3.5617211 L10.8554023,15.1244979 C10.7474217,15.2680888 10.6865018,15.4412862 10.6809254,15.6205415 L10.4516129,19.4946422 C10.4521864,19.5640344 10.4851604,19.6292142 10.5408341,19.6710063 C10.5965078,19.7127983 10.668548,19.7264485 10.735761,19.7079409 L14.4396559,18.4132671 C14.6041762,18.3570649 14.7481947,18.2534692 14.8534154,18.1156409 L23.5722744,6.58758719 C23.6635838,6.43267081 23.6124264,6.23347818 23.4576181,6.14114793 L20.0478414,3.5617211 Z" id="Shape" fill="#00A5CC" fill-rule="nonzero"></path>
                        <path d="M26.6192941,2.61876259 L23.2095174,0.0740588181 C23.1349677,0.0164340987 23.040373,-0.0091692389 22.946761,0.00294022469 C22.853149,0.0150496883 22.7682772,0.0638684513 22.711012,0.138544489 L20.9861834,2.41538471 C20.9206076,2.50150827 20.8921636,2.61005532 20.9071273,2.71707576 C20.922091,2.8240962 20.9792326,2.92079449 21.0659442,2.98583487 L24.4009452,5.46605297 C24.4874962,5.53130489 24.5965819,5.55960843 24.7041335,5.54471863 C24.811685,5.52982883 24.9088632,5.47296942 24.9742264,5.38668599 L26.6940699,3.11480621 C26.7509218,3.03939367 26.7750168,2.94444921 26.7609629,2.85121951 C26.7469091,2.75798982 26.6958797,2.67425837 26.6192941,2.61876259 Z" id="Shape" fill="#00A5CC" fill-rule="nonzero"></path>
                        <rect id="Rectangle-path" stroke="#00A5CC" x="0" y="7.8" width="18.0508796" height="17.9617395" rx="1"></rect>
                    </g>
                </g>
            </g>
        </g>
    </g>
</svg>