<?xml version="1.0" encoding="UTF-8" standalone="no"?>
<svg width="17px" height="10px" viewBox="0 0 17 10" version="1.1" xmlns="http://www.w3.org/2000/svg" xmlns:xlink="http://www.w3.org/1999/xlink">
    <!-- Generator: Sketch 45.2 (43514) - http://www.bohemiancoding.com/sketch -->
    <title>eye</title>
    <desc>Created with Sketch.</desc>
    <defs></defs>
    <g id="台電" stroke="none" stroke-width="1" fill="none" fill-rule="evenodd">
        <g id="台電基本功能-光纖查詢定位-屬性篩選-查詢結果" transform="translate(-316.000000, -362.000000)" fill="#626262">
            <g id="光纜查詢定位-屬性篩選結果" transform="translate(10.000000, 102.000000)">
                <g id="eye" transform="translate(306.000000, 260.000000)">
                    <path d="M16.666,4.67999882 C16.6656667,4.67299882 16.665,4.66633215 16.6645,4.65949882 C16.6641667,4.65599882 16.664,4.65249882 16.6636667,4.64916548 C16.6631667,4.64416548 16.6623333,4.63916548 16.6616667,4.63433215 C16.661,4.62849882 16.6603333,4.62266548 16.6593333,4.61699882 C16.6591667,4.61633215 16.659,4.61549882 16.659,4.61483215 C16.6385,4.48599882 16.5778333,4.36516548 16.4848333,4.27216548 C15.9531667,3.64199882 15.3206667,3.08116548 14.6775,2.56899882 C13.2923333,1.46533215 11.7081667,0.541998817 9.9595,0.17033215 C8.94883333,-0.0443345166 7.93183333,-0.0535011833 6.91583333,0.128165483 C5.99166667,0.293498817 5.101,0.637165483 4.26733333,1.06316548 C2.9625,1.72983215 1.77083333,2.64899882 0.7325,3.67949882 C0.540333333,3.87016548 0.349166667,4.06483215 0.1745,4.27199882 C-0.0581666667,4.54766548 -0.0581666667,4.87416548 0.1745,5.14983215 C0.706166667,5.77999882 1.33866667,6.34066548 1.98183333,6.85299882 C3.36716667,7.95666548 4.95133333,8.87983215 6.7,9.25149882 C7.71066667,9.46633215 8.72783333,9.47549882 9.74383333,9.29383215 C10.6678333,9.12849882 11.5585,8.78483215 12.3923333,8.35883215 C13.6971667,7.69199882 14.8888333,6.77299882 15.9271667,5.74249882 C16.1193333,5.55166548 16.3105,5.35716548 16.4851667,5.14999882 C16.5781667,5.05683215 16.6388333,4.93616548 16.6593333,4.80716548 C16.6593333,4.80649882 16.6595,4.80566548 16.6596667,4.80499882 C16.6606667,4.79916548 16.6613333,4.79349882 16.662,4.78766548 C16.6626667,4.78283215 16.6635,4.77783215 16.664,4.77283215 C16.6643333,4.76933215 16.6645,4.76599882 16.6648333,4.76249882 C16.6653333,4.75583215 16.666,4.74916548 16.6663333,4.74216548 C16.6668333,4.73183215 16.6671667,4.72149882 16.6671667,4.71099882 C16.6671667,4.70049882 16.6665,4.69033215 16.666,4.67999882 L16.666,4.67999882 Z M8.3335,7.91783215 C6.56233333,7.91783215 5.12666667,6.48216548 5.12666667,4.71099882 C5.12666667,2.93999882 6.56233333,1.50416548 8.3335,1.50416548 C10.1046667,1.50416548 11.5403333,2.93983215 11.5403333,4.71099882 C11.5403333,6.48216548 10.1046667,7.91783215 8.3335,7.91783215 L8.3335,7.91783215 Z"></path>
                    <circle id="Oval" cx="8.3335" cy="4.71099882" r="1.0615"></circle>
                </g>
            </g>
        </g>
    </g>
</svg>