<?xml version="1.0" encoding="UTF-8" standalone="no"?>
<svg width="18px" height="18px" viewBox="0 0 18 18" version="1.1" xmlns="http://www.w3.org/2000/svg" xmlns:xlink="http://www.w3.org/1999/xlink">
    <!-- Generator: Sketch 45.1 (43504) - http://www.bohemiancoding.com/sketch -->
    <title>Shape</title>
    <desc>Created with Sketch.</desc>
    <defs></defs>
    <g id="新台電" stroke="none" stroke-width="1" fill="none" fill-rule="evenodd">
        <g id="新台電-查詢定位" transform="translate(-742.000000, -688.000000)" fill="#009FCC">
            <g id="Group-4" transform="translate(725.000000, 679.000000)">
                <g id="Group" transform="translate(17.000000, 7.000000)">
                    <path d="M9,2 C4.014,2 0,6.014 0,11 C0,15.986 4.014,20 9,20 C13.986,20 18,15.986 18,11 C18,6.014 13.986,2 9,2 L9,2 Z M9,5 C9.8284272,5 10.5,5.6715728 10.5,6.5 C10.5,7.3284272 9.8284272,8 9,8 C8.1715728,8 7.5,7.3284272 7.5,6.5 C7.5,5.6715728 8.1715728,5 9,5 L9,5 Z M8,9 L10,9 L10,17 L8,17 L8,9 Z" id="Shape"></path>
                </g>
            </g>
        </g>
    </g>
</svg>