<?xml version="1.0" encoding="UTF-8" standalone="no"?>
<svg width="17px" height="22px" viewBox="0 0 17 22" version="1.1" xmlns="http://www.w3.org/2000/svg" xmlns:xlink="http://www.w3.org/1999/xlink">
    <!-- Generator: Sketch 45.1 (43504) - http://www.bohemiancoding.com/sketch -->
    <title>Shape</title>
    <desc>Created with Sketch.</desc>
    <defs></defs>
    <g id="新台電" stroke="none" stroke-width="1" fill="none" fill-rule="evenodd">
        <g id="新台電-查詢定位" transform="translate(-678.000000, -18.000000)" fill-rule="nonzero" fill="#00A9CC">
            <g id="Group-21" transform="translate(655.000000, 0.000000)">
                <g id="Group-6" transform="translate(23.000000, 0.000000)">
                    <path d="M1.14997755,40 C0.890754019,40 0.679648137,39.752329 0.679389313,39.5111113 L0.679389313,18.4888887 C0.679412842,18.2329139 0.903577548,18.0000244 1.14997755,18 L12.9146834,18 C13.037507,18.0009778 13.1592011,18.0543962 13.2455775,18.1451388 L16.5396952,21.5673595 C16.6270364,21.6570877 16.6784011,21.7834997 16.6793893,21.9111094 L16.6793893,39.5111113 C16.6793658,39.7670934 16.4552011,39.9999756 16.2088011,40 L1.14997755,40 Z M1.62056578,39.0222227 L15.7382128,39.0222227 L15.7382128,22.399998 L12.9146834,22.399998 C12.6287305,22.3995092 12.447107,22.1380246 12.4440952,21.9111094 L12.4440952,18.9777773 L1.62056578,18.9777773 L1.62056578,39.0222227 Z M3.97350696,36.0888906 C3.71360108,36.0888906 3.50291872,35.8700152 3.50291872,35.600002 C3.50291872,35.3299887 3.71360108,35.1111133 3.97350696,35.1111133 L13.3852717,35.1111133 C13.6451775,35.1111133 13.8558599,35.3299887 13.8558599,35.600002 C13.8558599,35.8700152 13.6451775,36.0888906 13.3852717,36.0888906 L3.97350696,36.0888906 Z M3.97350696,31.6888926 C3.71360108,31.6888926 3.50291872,31.4700171 3.50291872,31.2000039 C3.50291872,30.9299907 3.71360108,30.7111152 3.97350696,30.7111152 L13.3852717,30.7111152 C13.6451775,30.7111152 13.8558599,30.9299907 13.8558599,31.2000039 C13.8558599,31.4700171 13.6451775,31.6888926 13.3852717,31.6888926 L3.97350696,31.6888926 Z M3.97350696,27.2888848 C3.71360108,27.2888848 3.50291872,27.0700093 3.50291872,26.7999961 C3.50291872,26.5299829 3.71360108,26.3111074 3.97350696,26.3111074 L13.3852717,26.3111074 C13.6451775,26.3111074 13.8558599,26.5299829 13.8558599,26.7999961 C13.8558599,27.0700093 13.6451775,27.2888848 13.3852717,27.2888848 L3.97350696,27.2888848 Z M3.97350696,22.8888867 C3.71360108,22.8888867 3.50291872,22.6700113 3.50291872,22.399998 C3.50291872,22.1299848 3.71360108,21.9111094 3.97350696,21.9111094 L11.5029187,21.9111094 C11.7628246,21.9111094 11.973507,22.1299848 11.973507,22.399998 C11.973507,22.6700113 11.7628246,22.8888867 11.5029187,22.8888867 L3.97350696,22.8888867 Z M13.3852717,21.4222207 L15.069107,21.4222207 L13.3852717,19.6729159 L13.3852717,21.4222207 Z" id="Shape"></path>
                </g>
            </g>
        </g>
    </g>
</svg>