<?xml version="1.0" encoding="UTF-8" standalone="no"?>
<svg width="24px" height="15px" viewBox="0 0 24 15" version="1.1" xmlns="http://www.w3.org/2000/svg" xmlns:xlink="http://www.w3.org/1999/xlink">
    <!-- Generator: Sketch 45.1 (43504) - http://www.bohemiancoding.com/sketch -->
    <title>noun_872430_cc</title>
    <desc>Created with Sketch.</desc>
    <defs></defs>
    <g id="新台電" stroke="none" stroke-width="1" fill="none" fill-rule="evenodd">
        <g id="新台電-查詢定位" transform="translate(-855.000000, -21.000000)" fill-rule="nonzero" fill="#00A7CC">
            <g id="Group-21" transform="translate(655.000000, 0.000000)">
                <g id="Group-10" transform="translate(183.000000, 0.000000)">
                    <g id="noun_872430_cc" transform="translate(17.000000, 21.000000)">
                        <path d="M2.73916031,14.12 C1.22798473,14.12 0,12.796 0,11.1666667 C0,9.53733333 1.22798473,8.21333333 2.73916031,8.21333333 C3.15096183,8.21333333 3.53803053,8.31866667 3.888,8.49466667 L6.83244275,4.81866667 C6.4441374,4.308 6.20051908,3.664 6.20051908,2.95333333 C6.20051908,1.324 7.42850382,0 8.93967939,0 C10.450855,0 11.6788397,1.324 11.6788397,2.95333333 C11.6788397,3.72133333 11.3993588,4.416 10.9516947,4.94133333 L13.739084,8.42133333 C14.0494809,8.29066667 14.3846107,8.212 14.7370534,8.212 C15.1636947,8.212 15.5618931,8.32666667 15.9217557,8.51466667 L18.8563053,4.85066667 C18.4531603,4.336 18.1996489,3.68 18.1996489,2.95466667 C18.1996489,1.32533333 19.4276336,0.00133333333 20.9388092,0.00133333333 C22.4499847,0.00133333333 23.6779695,1.32533333 23.6779695,2.95466667 C23.6779695,4.584 22.4499847,5.908 20.9388092,5.908 C20.5505038,5.908 20.1807481,5.81733333 19.8456183,5.65866667 L16.8850992,9.35466667 C17.2499084,9.856 17.4762137,10.48 17.4762137,11.1653333 C17.4762137,12.7946667 16.248229,14.1186667 14.7370534,14.1186667 C13.2258779,14.1186667 11.9978931,12.7946667 11.9978931,11.1653333 C11.9978931,10.4026667 12.2749008,9.712 12.7163817,9.188 L9.9240458,5.70266667 C9.61735878,5.83066667 9.28717557,5.908 8.93967939,5.908 C8.53777099,5.908 8.15812214,5.80933333 7.81309924,5.64 L4.86247328,9.324 C5.24212214,9.83066667 5.47832061,10.4666667 5.47832061,11.1666667 C5.47832061,12.796 4.25033588,14.12 2.73916031,14.12 Z M16.2395725,11.1666667 C16.2395725,12.06 15.5656031,12.7866667 14.7370534,12.7866667 C13.9085038,12.7866667 13.2345344,12.06 13.2345344,11.1666667 C13.2345344,10.2733333 13.9085038,9.54666667 14.7370534,9.54666667 C15.5656031,9.54666667 16.2395725,10.2733333 16.2395725,11.1666667 Z M8.93967939,1.336 C9.76822901,1.336 10.4421985,2.06266667 10.4421985,2.956 C10.4421985,3.84933333 9.76822901,4.576 8.93967939,4.576 C8.11112977,4.576 7.43716031,3.84933333 7.43716031,2.956 C7.43716031,2.06266667 8.11112977,1.336 8.93967939,1.336 Z M2.73916031,9.54666667 C3.56770992,9.54666667 4.24167939,10.2733333 4.24167939,11.1666667 C4.24167939,12.06 3.56770992,12.7866667 2.73916031,12.7866667 C1.91061069,12.7866667 1.23664122,12.06 1.23664122,11.1666667 C1.23664122,10.2733333 1.91061069,9.54666667 2.73916031,9.54666667 Z" id="Shape"></path>
                    </g>
                </g>
            </g>
        </g>
    </g>
</svg>