<?xml version="1.0" encoding="UTF-8" standalone="no"?>
<svg width="25px" height="18px" viewBox="0 0 25 18" version="1.1" xmlns="http://www.w3.org/2000/svg" xmlns:xlink="http://www.w3.org/1999/xlink">
    <!-- Generator: Sketch 45.1 (43504) - http://www.bohemiancoding.com/sketch -->
    <title>noun_896152_cc</title>
    <desc>Created with Sketch.</desc>
    <defs></defs>
    <g id="新台電" stroke="none" stroke-width="1" fill="none" fill-rule="evenodd">
        <g id="Group-25" transform="translate(-16.000000, -19.000000)" fill-rule="nonzero" fill="#000000">
            <g id="Group-23">
                <g id="noun_896152_cc" transform="translate(16.000000, 19.000000)">
                    <path d="M22.7777778,0 C24,0 25,1.0125 25,2.25 L25,15.75 C25,16.9875 24,18 22.7777778,18 L2.22222222,18 C1,18 0,16.9875 0,15.75 L0,2.25 C0,1.0125 1,0 2.22222222,0 L22.7777778,0 Z M22.3055556,3.515625 C22.5555556,3.290625 22.5555556,2.953125 22.3611111,2.7 C22.1666667,2.475 21.8055556,2.475 21.5833333,2.671875 L12.5,11.053125 L3.44444444,2.7 C3.22222222,2.475 2.86111111,2.503125 2.66666667,2.728125 C2.44444444,2.953125 2.47222222,3.31875 2.69444444,3.515625 L8.77777778,9.140625 L2.69444444,14.484375 C2.47222222,14.68125 2.44444444,15.046875 2.63888889,15.271875 C2.75,15.4125 2.88888889,15.46875 3.05555556,15.46875 C3.19444444,15.46875 3.30555556,15.4125 3.41666667,15.328125 L9.61111111,9.9 L12.1388889,12.234375 C12.2222222,12.31875 12.3611111,12.375 12.5,12.375 C12.6388889,12.375 12.7777778,12.31875 12.8888889,12.234375 L15.4166667,9.9 L21.5833333,15.328125 C21.6944444,15.4125 21.8055556,15.46875 21.9444444,15.46875 C22.0833333,15.46875 22.25,15.4125 22.3611111,15.271875 C22.5555556,15.046875 22.5277778,14.68125 22.3055556,14.484375 L16.2222222,9.140625 L22.3055556,3.515625 Z" id="Shape"></path>
                </g>
            </g>
        </g>
    </g>
</svg>