<?xml version="1.0" encoding="UTF-8" standalone="no"?>
<svg width="18px" height="18px" viewBox="0 0 18 18" version="1.1" xmlns="http://www.w3.org/2000/svg" xmlns:xlink="http://www.w3.org/1999/xlink">
    <!-- Generator: Sketch 45.1 (43504) - http://www.bohemiancoding.com/sketch -->
    <title>noun_977081_cc</title>
    <desc>Created with Sketch.</desc>
    <defs></defs>
    <g id="新台電" stroke="none" stroke-width="1" fill="none" fill-rule="evenodd">
        <g id="新台電-查詢定位" transform="translate(-976.000000, -688.000000)" fill-rule="nonzero">
            <g id="Group-4" transform="translate(725.000000, 679.000000)">
                <g id="Group" transform="translate(17.000000, 7.000000)">
                    <g id="noun_977081_cc" transform="translate(234.000000, 2.000000)">
                        <path d="M9,0.45 C4.27796539,0.45 0.45,4.27796539 0.45,9 C0.45,13.7220346 4.27796539,17.55 9,17.55 C13.7220346,17.55 17.55,13.7220346 17.55,9 C17.5450394,4.28002165 13.7199783,0.45496057 9,0.45 Z M14.706,14.076 L13.806,13.176 C13.6918536,13.0618536 13.5254817,13.0172744 13.3695549,13.0590549 C13.2136281,13.1008353 13.0918353,13.2226281 13.0500549,13.3785549 C13.0082744,13.5344817 13.0528536,13.7008536 13.167,13.815 L14.067,14.715 C11.179673,17.2988796 6.811327,17.2988796 3.924,14.715 L4.824,13.815 C5.00045496,13.638545 5.00045495,13.352455 4.82399998,13.176 C4.64754501,12.999545 4.36145498,12.999545 4.185,13.176 L3.285,14.076 C0.701120433,11.188673 0.701120433,6.820327 3.285,3.933 L4.185,4.833 C4.36145498,5.00945497 4.64754502,5.00945497 4.824,4.833 C5.00045497,4.65654502 5.00045497,4.37045498 4.824,4.194 L3.924,3.294 C6.811327,0.710120433 11.179673,0.710120433 14.067,3.294 L13.167,4.194 C13.0528536,4.30814635 13.0082744,4.4745183 13.0500549,4.63044513 C13.0918353,4.78637195 13.213628,4.90816467 13.3695549,4.94994514 C13.5254817,4.9917256 13.6918536,4.94714637 13.806,4.833 L14.706,3.933 C17.2898796,6.820327 17.2898796,11.188673 14.706,14.076 L14.706,14.076 Z" id="Shape" fill="#009FCC"></path>
                        <path d="M11.223,8.892 C11.2245333,8.87102799 11.2245333,8.84997201 11.223,8.829 L9.423,4.329 C9.34368807,4.17055008 9.18169131,4.07047971 9.0045,4.07047971 C8.82730869,4.07047971 8.66531193,4.17055008 8.586,4.329 L6.786,8.829 C6.78604655,8.88599999 6.78604655,8.94300001 6.786,9 C6.78604655,9.05699999 6.78604655,9.11400001 6.786,9.171 L8.586,13.671 C8.65388232,13.842756 8.81981612,13.9555982 9.0045,13.9555982 C9.18918388,13.9555982 9.35511768,13.842756 9.423,13.671 L11.223,9.171 C11.2229534,9.11400001 11.2229534,9.05699999 11.223,9 C11.2276146,8.96414788 11.2276146,8.92785212 11.223,8.892 Z M9,12.285 L7.866,9.45 L10.134,9.45 L9,12.285 Z" id="Shape" fill="#00A1CC"></path>
                    </g>
                </g>
            </g>
        </g>
    </g>
</svg>