<?xml version="1.0" encoding="UTF-8" standalone="no"?>
<svg width="26px" height="22px" viewBox="0 0 26 22" version="1.1" xmlns="http://www.w3.org/2000/svg" xmlns:xlink="http://www.w3.org/1999/xlink">
    <!-- Generator: Sketch 45.1 (43504) - http://www.bohemiancoding.com/sketch -->
    <title>print_icon</title>
    <desc>Created with Sketch.</desc>
    <defs></defs>
    <g id="新台電" stroke="none" stroke-width="1" fill="none" fill-rule="evenodd">
        <g id="新台電-查詢定位" transform="translate(-974.000000, -18.000000)" fill="#00A3CC">
            <g id="Group-21" transform="translate(655.000000, 0.000000)">
                <g id="Group-13" transform="translate(303.000000, 0.000000)">
                    <g id="print_icon" transform="translate(16.000000, 18.000000)">
                        <path d="M0.638671875,16.3474065 C0.638671875,17.2739491 1.39182886,18.0266863 2.31795167,18.0266863 L5.00647863,18.0266863 L4.72771818,19.127874 C4.59295598,19.7000886 4.71134521,20.2756618 5.05265883,20.7072367 C5.39397244,21.1388116 5.9275636,21.3852459 6.51615117,21.3852459 L19.9503896,21.3852459 C20.5381375,21.3852459 21.0717286,21.1383918 21.4130423,20.7072367 C21.7543559,20.2760816 21.8731649,19.7005084 21.735464,19.11402 L21.4600621,18.0266863 L24.1485891,18.0266863 C25.074292,18.0266863 25.8278689,17.2739491 25.8278689,16.3474065 L25.8278689,9.63028731 L0.638671875,9.63028731 L0.638671875,16.3474065 L0.638671875,16.3474065 Z M6.09633122,13.8284868 L20.3702095,13.8284868 C20.6019501,13.8284868 20.7900295,14.0161463 20.7900295,14.2483068 C20.7900295,14.4804672 20.6019501,14.6681267 20.3702095,14.6681267 L18.8769099,14.6681267 L20.1036238,19.5124291 C20.1229356,19.5934544 20.1120202,19.6450922 20.0964869,19.6639841 C20.0813734,19.6837156 20.0339337,19.7059661 19.9499697,19.7059661 L6.51573135,19.7059661 C6.43218718,19.7059661 6.38432771,19.6837156 6.36879437,19.6639841 C6.35326103,19.6450922 6.34234571,19.5934544 6.35829887,19.5262832 L7.58837132,14.6681267 L6.09633122,14.6681267 C5.86417079,14.6681267 5.67651127,14.4804672 5.67651127,14.2483068 C5.67651127,14.0161463 5.86417079,13.8284868 6.09633122,13.8284868 L6.09633122,13.8284868 Z M8.61525092,18.4465063 L17.8512898,18.4465063 C18.0830304,18.4465063 18.2711098,18.2588467 18.2711098,18.0266863 C18.2711098,17.7945259 18.0830304,17.6068664 17.8512898,17.6068664 L8.61525092,17.6068664 C8.38309049,17.6068664 8.19543097,17.7945259 8.19543097,18.0266863 C8.19543097,18.2588467 8.38309049,18.4465063 8.61525092,18.4465063 L8.61525092,18.4465063 Z M9.45489082,16.3474065 L17.0116499,16.3474065 C17.2433905,16.3474065 17.4314699,16.159747 17.4314699,15.9275866 C17.4314699,15.6954261 17.2433905,15.5077666 17.0116499,15.5077666 L9.45489082,15.5077666 C9.22273038,15.5077666 9.03507087,15.6954261 9.03507087,15.9275866 C9.03507087,16.159747 9.22273038,16.3474065 9.45489082,16.3474065 L9.45489082,16.3474065 Z" id="Shape"></path>
                        <path d="M24.1485891,5.43208782 C25.074292,5.43208782 25.8278689,6.18566463 25.8278689,7.11136761 L25.8278689,8.79064741 L0.638671875,8.79064741 L0.638671875,7.11136761 C0.638671875,6.18566463 1.39182886,5.43208782 2.31795167,5.43208782 L5.25669132,5.43208782 L5.25669132,1.23388832 C5.25669132,0.770407095 5.63243018,0.39424842 6.09633122,0.39424842 L20.3702095,0.39424842 C20.8336907,0.39424842 21.2098494,0.770407095 21.2098494,1.23388832 L21.2098494,5.43208782 L24.1485891,5.43208782 Z M23.0990392,7.95100751 C23.4462303,7.95100751 23.7287691,7.66972815 23.7287691,7.32127759 C23.7287691,6.97366667 23.4462303,6.69154766 23.0990392,6.69154766 C22.7514283,6.69154766 22.4693093,6.97366667 22.4693093,7.32127759 C22.4693093,7.66972815 22.7514283,7.95100751 23.0990392,7.95100751 Z M20.5801195,7.95100751 C20.9273106,7.95100751 21.2098494,7.66972815 21.2098494,7.32127759 C21.2098494,6.97366667 20.9273106,6.69154766 20.5801195,6.69154766 C20.2325086,6.69154766 19.9503896,6.97366667 19.9503896,7.32127759 C19.9503896,7.66972815 20.2325086,7.95100751 20.5801195,7.95100751 Z M19.5305696,5.43208782 L19.5305696,2.07352822 L6.93597112,2.07352822 L6.93597112,5.43208782 L19.5305696,5.43208782 Z" id="Combined-Shape"></path>
                    </g>
                </g>
            </g>
        </g>
    </g>
</svg>