<?xml version="1.0" encoding="UTF-8" standalone="no"?>
<svg width="25px" height="17px" viewBox="0 0 25 17" version="1.1" xmlns="http://www.w3.org/2000/svg" xmlns:xlink="http://www.w3.org/1999/xlink">
    <!-- Generator: Sketch 45.1 (43504) - http://www.bohemiancoding.com/sketch -->
    <title>Shape</title>
    <desc>Created with Sketch.</desc>
    <defs></defs>
    <g id="新台電" stroke="none" stroke-width="1" fill="none" fill-rule="evenodd">
        <g id="新台電-查詢定位" transform="translate(-833.000000, -688.000000)" fill-rule="nonzero" fill="#00A1CC">
            <g id="Group-4" transform="translate(725.000000, 679.000000)">
                <g id="Group" transform="translate(17.000000, 7.000000)">
                    <path d="M109.535118,15.9798919 L109.535118,18.731068 L115.287965,18.731068 L91,2 L91,18.7313172 L92.3630406,18.7313172 L92.3630406,15.9798919 L92.8682303,15.9798919 L92.8682303,18.731068 L94.2149979,18.731068 L94.2149979,16.8288419 L94.7201876,16.8288419 L94.7201876,18.731068 L96.0669553,18.731068 L96.0669553,16.8288419 L96.5721449,16.8288419 L96.5721449,18.731068 L97.9186697,18.731068 L97.9186697,15.9798919 L98.4238594,15.9798919 L98.4238594,18.731068 L99.770627,18.731068 L99.770627,16.8288419 L100.275817,16.8288419 L100.275817,18.731068 L101.622584,18.731068 L101.622584,16.8288419 L102.127774,16.8288419 L102.127774,18.731068 L103.474785,18.731068 L103.474785,15.9798919 L103.979731,15.9798919 L103.979731,18.731068 L105.326499,18.731068 L105.326499,16.8288419 L105.831689,16.8288419 L105.831689,18.731068 L107.178456,18.731068 L107.178456,16.8288419 L107.683403,16.8288419 L107.683403,18.731068 L109.030171,18.731068 L109.030171,15.9798919 L109.535118,15.9798919 Z M94.5577011,15.0811062 L94.5577011,8.84741603 L103.606911,15.0811062 L94.5577011,15.0811062 L94.5577011,15.0811062 Z" id="Shape"></path>
                </g>
            </g>
        </g>
    </g>
</svg>