<?xml version="1.0" encoding="UTF-8" standalone="no"?>
<svg width="17px" height="22px" viewBox="0 0 17 22" version="1.1" xmlns="http://www.w3.org/2000/svg" xmlns:xlink="http://www.w3.org/1999/xlink">
    <!-- Generator: Sketch 45.1 (43504) - http://www.bohemiancoding.com/sketch -->
    <title>Shape</title>
    <desc>Created with Sketch.</desc>
    <defs></defs>
    <g id="新台電" stroke="none" stroke-width="1" fill="none" fill-rule="evenodd">
        <g id="新台電-查詢定位" transform="translate(-788.000000, -686.000000)" fill="#00A1CC">
            <g id="Group-4" transform="translate(725.000000, 679.000000)">
                <g id="Group" transform="translate(17.000000, 7.000000)">
                    <path d="M62.4630181,5.56639216 C61.4442634,2.74055263 59.0652719,0.716410023 56.1114523,0.153516433 C55.0300926,-0.0511721445 53.9544242,-0.0511721445 52.8730644,0.153516433 C49.9192448,0.716410023 47.5402534,2.74055263 46.5214986,5.56639216 C45.4742871,8.46614702 46.0206583,11.6160768 48.0126368,14.0211676 L54.4894127,21.3160411 L60.9946454,13.9870528 C62.958167,11.6160768 63.5045383,8.46614702 62.4630181,5.56639216 Z M54.4894127,12.7475498 C52.0876557,12.7475498 50.1298254,10.8428088 50.1298254,8.49457598 C50.1298254,6.15202893 52.0876557,4.2416022 54.4894127,4.2416022 C56.8911696,4.2416022 58.8489999,6.14634313 58.8489999,8.49457598 C58.8489999,10.8428088 56.8911696,12.7475498 54.4894127,12.7475498 Z" id="Shape"></path>
                </g>
            </g>
        </g>
    </g>
</svg>