<?xml version="1.0" encoding="UTF-8" standalone="no"?>
<svg width="24px" height="24px" viewBox="0 0 24 24" version="1.1" xmlns="http://www.w3.org/2000/svg" xmlns:xlink="http://www.w3.org/1999/xlink">
    <!-- Generator: Sketch 45.1 (43504) - http://www.bohemiancoding.com/sketch -->
    <title>Group</title>
    <desc>Created with Sketch.</desc>
    <defs></defs>
    <g id="新台電" stroke="none" stroke-width="1" fill="none" fill-rule="evenodd">
        <g id="新台電-查詢定位" transform="translate(-735.000000, -17.000000)" fill-rule="nonzero" fill="#00A9CC">
            <g id="Group-21" transform="translate(655.000000, 0.000000)">
                <g id="Group-6" transform="translate(23.000000, 0.000000)">
                    <g id="Group" transform="translate(57.000000, 17.000000)">
                        <path d="M23.5832,17.4592 L20.2992,15.8512 L13.888,18.9888 C13.2976,19.2792 12.6336,19.432 11.9688,19.432 C11.304,19.432 10.6408,19.28 10.0504,18.9896 L3.6376,15.8512 L0.3512,17.4592 C0.136,17.564 0,17.7768 0,18.0088 C0,18.24 0.136,18.4528 0.3504,18.5584 L10.764,23.656 C11.1416,23.84 11.556,23.9336 11.9688,23.9336 C12.3816,23.9336 12.7952,23.8408 13.1728,23.656 L23.584,18.5584 C23.8008,18.4528 23.9352,18.2408 23.9352,18.0088 C23.9352,17.7768 23.8,17.564 23.5832,17.4592 Z" id="Shape"></path>
                        <path d="M23.5832,11.4584 L20.204,9.8048 L13.5296,13.0728 C13.0488,13.308 12.5096,13.4328 11.968,13.4328 C11.4272,13.4328 10.8864,13.308 10.4056,13.072 L3.7304,9.8048 L0.3496,11.4584 C0.136,11.564 0,11.7768 0,12.008 C0,12.2392 0.136,12.4528 0.3504,12.5584 L10.764,17.6552 C11.1416,17.84 11.556,17.9336 11.9688,17.9336 C12.3816,17.9336 12.7952,17.8408 13.1728,17.6552 L23.584,12.5584 C23.8008,12.4528 23.9352,12.24 23.9352,12.008 C23.9352,11.776 23.8,11.564 23.5832,11.4584 Z" id="Shape"></path>
                        <path d="M0.3504,6.556 L10.764,11.6544 C11.1416,11.8384 11.556,11.932 11.9688,11.932 C12.3816,11.932 12.7952,11.8392 13.1728,11.6544 L23.584,6.556 C23.8008,6.4512 23.9352,6.2392 23.9352,6.0072 C23.9352,5.7752 23.8,5.5624 23.584,5.4576 L13.1728,0.3616 C12.8256,0.192 12.3712,0 11.9928,0 C11.5304,0 11.1104,0.192 10.7648,0.3608 L0.3504,5.4584 C0.136,5.5632 0,5.776 0,6.008 C0,6.2392 0.136,6.4512 0.3504,6.556 Z M11.4816,1.696 C11.6312,1.6224 11.7992,1.584 11.968,1.584 C12.1376,1.584 12.3064,1.6224 12.4568,1.6968 L21.264,6.008 L12.4552,10.32 C12.3056,10.3944 12.1376,10.432 11.9688,10.432 C11.7992,10.432 11.6304,10.3944 11.48,10.3192 L2.6712,6.008 L11.4816,1.696 Z" id="Shape"></path>
                    </g>
                </g>
            </g>
        </g>
    </g>
</svg>