<?xml version="1.0" encoding="UTF-8" standalone="no"?>
<svg width="145px" height="57px" viewBox="0 0 145 57" version="1.1" xmlns="http://www.w3.org/2000/svg" xmlns:xlink="http://www.w3.org/1999/xlink">
    <!-- Generator: Sketch 45.1 (43504) - http://www.bohemiancoding.com/sketch -->
    <title>3</title>
    <desc>Created with Sketch.</desc>
    <defs>
        <radialGradient cx="53.3124991%" cy="-27.1815888%" fx="53.3124991%" fy="-27.1815888%" r="105.462301%" gradientTransform="translate(0.533125,-0.271816),scale(0.982085,1.000000),rotate(110.065565),translate(-0.533125,0.271816)" id="radialGradient-1">
            <stop stop-color="#111010" offset="0%"></stop>
            <stop stop-color="#00A0FF" offset="100%"></stop>
        </radialGradient>
    </defs>
    <g id="新台電" stroke="none" stroke-width="1" fill="none" fill-rule="evenodd">
        <g id="新台電-查詢定位" transform="translate(-507.000000, 0.000000)" stroke-width="5" stroke="url(#radialGradient-1)">
            <g id="noun_935673_cc">
                <g id="Page-1-+-Page-1-+-Page-1-Mask">
                    <g id="3" transform="translate(579.500000, 27.000000) rotate(-270.000000) translate(-579.500000, -27.000000) translate(508.500000, -42.500000)">
                        <path d="M19.0788571,36.9999742 L5.25905632e-05,69.3918705 L19.0788571,101.783767 L57.2362032,101.783767 L76.3155336,69.3918705 L57.2362032,36.9999742 L19.0788571,36.9999742 Z M0.30350014,69.3918705 L19.2305809,37.2577258 L57.0847424,37.2577258 L76.0118231,69.3918705 L57.0847424,101.526015 L19.2305809,101.526015 L0.30350014,69.3918705 Z M84.0788045,0 L122.236151,0 L141.315481,32.3918962 L122.236151,64.7837925 L84.0788045,64.7837925 L65,32.3918962 L84.0788045,0 Z M84.0788571,73.9999742 L122.236203,73.9999742 L141.315534,106.39187 L122.236203,138.783767 L84.0788571,138.783767 L65.0000526,106.39187 L84.0788571,73.9999742 Z" id="Combined-Shape"></path>
                    </g>
                </g>
            </g>
        </g>
    </g>
</svg>