<?xml version="1.0" encoding="UTF-8" standalone="no"?>
<svg width="150px" height="153px" viewBox="0 0 150 153" version="1.1" xmlns="http://www.w3.org/2000/svg" xmlns:xlink="http://www.w3.org/1999/xlink">
    <!-- Generator: Sketch 45.1 (43504) - http://www.bohemiancoding.com/sketch -->
    <title>Combined Shape Copy</title>
    <desc>Created with Sketch.</desc>
    <defs>
        <radialGradient cx="46.6394268%" cy="61.017388%" fx="46.6394268%" fy="61.017388%" r="107.759058%" gradientTransform="translate(0.466394,0.610174),scale(1.000000,0.642113),rotate(49.604190),translate(-0.466394,-0.610174)" id="radialGradient-1">
            <stop stop-color="#00A0FF" offset="0%"></stop>
            <stop stop-color="#111010" offset="100%"></stop>
        </radialGradient>
    </defs>
    <g id="新台電" stroke="none" stroke-width="1" fill="none" fill-rule="evenodd">
        <g id="新台電-登入" transform="translate(-249.000000, -587.000000)" stroke="url(#radialGradient-1)">
            <g id="nasa-53884" transform="translate(249.000000, 20.000000)">
                <path d="M75.2063773,586.882373 L42.3918962,567.803568 L9.5774152,586.882373 L9.5774152,625.039719 L42.3918962,644.119049 L75.2063773,625.039719 L75.2063773,586.882373 Z M42.3918962,568.107014 L74.9452631,587.034095 L74.9452631,624.888256 L42.3918962,643.815337 L9.83852938,624.888256 L9.83852938,587.034095 L42.3918962,568.107014 Z M112.206351,652.73031 L112.206351,690.887656 L79.3918705,709.966986 L46.5773894,690.887656 L46.5773894,652.73031 L79.3918705,633.651505 L112.206351,652.73031 Z M38.2063773,652.730363 L38.2063773,690.887709 L5.39189623,709.96704 L-27.4225848,690.887709 L-27.4225848,652.730363 L5.39189623,633.651558 L38.2063773,652.730363 Z M46.2080166,821.231085 L46.2080166,783.073738 L79.0224977,763.994408 L111.836979,783.073738 L111.836979,821.231085 L79.0224977,840.309889 L46.2080166,821.231085 Z M9.2080424,755.383148 L9.2080424,717.225801 L42.0225234,698.146471 L74.8370045,717.225801 L74.8370045,755.383148 L42.0225234,774.461952 L9.2080424,755.383148 Z M83.2080166,755.383094 L83.2080166,717.225748 L116.022498,698.146418 L148.836979,717.225748 L148.836979,755.383094 L116.022498,774.461899 L83.2080166,755.383094 Z" id="Combined-Shape-Copy"></path>
            </g>
        </g>
    </g>
</svg>