<?xml version="1.0" encoding="UTF-8" standalone="no"?>
<svg width="142px" height="275px" viewBox="0 0 142 275" version="1.1" xmlns="http://www.w3.org/2000/svg" xmlns:xlink="http://www.w3.org/1999/xlink">
    <!-- Generator: Sketch 45.1 (43504) - http://www.bohemiancoding.com/sketch -->
    <title>Combined Shape</title>
    <desc>Created with Sketch.</desc>
    <defs>
        <radialGradient cx="46.6394268%" cy="61.017388%" fx="46.6394268%" fy="61.017388%" r="107.759058%" gradientTransform="translate(0.466394,0.610174),scale(1.000000,0.642113),rotate(49.604190),translate(-0.466394,-0.610174)" id="radialGradient-1">
            <stop stop-color="#00A0FF" offset="0%"></stop>
            <stop stop-color="#111010" offset="100%"></stop>
        </radialGradient>
    </defs>
    <g id="新台電" stroke="none" stroke-width="1" fill="none" fill-rule="evenodd">
        <g id="新台電-登入" transform="translate(-633.000000, -22.000000)" stroke="url(#radialGradient-1)">
            <g id="nasa-53884" transform="translate(249.000000, 20.000000)">
                <path d="M487.210516,22.5601124 L454.396035,3.48130789 L421.581554,22.5601124 L421.581554,60.7174585 L454.396035,79.7967889 L487.210516,60.7174585 L487.210516,22.5601124 Z M454.396035,3.78475372 L486.949402,22.7118345 L486.949402,60.565996 L454.396035,79.4930767 L421.842668,60.565996 L421.842668,22.7118345 L454.396035,3.78475372 Z M524.21049,88.4080494 L524.21049,126.565395 L491.396009,145.644726 L458.581528,126.565395 L458.581528,88.4080494 L491.396009,69.3292449 L524.21049,88.4080494 Z M450.210516,88.4081027 L450.210516,126.565449 L417.396035,145.644779 L384.581554,126.565449 L384.581554,88.4081027 L417.396035,69.3292981 L450.210516,88.4081027 Z M458.212155,256.908824 L458.212155,218.751478 L491.026636,199.672148 L523.841117,218.751478 L523.841117,256.908824 L491.026636,275.987629 L458.212155,256.908824 Z M421.212181,191.060887 L421.212181,152.903541 L454.026662,133.824211 L486.841143,152.903541 L486.841143,191.060887 L454.026662,210.139692 L421.212181,191.060887 Z M495.212155,191.060834 L495.212155,152.903488 L528.026636,133.824157 L560.841117,152.903488 L560.841117,191.060834 L528.026636,210.139638 L495.212155,191.060834 Z" id="Combined-Shape"></path>
            </g>
        </g>
    </g>
</svg>